<svg width="50" height="50" viewBox="0 0 50 50" fill="none" xmlns="http://www.w3.org/2000/svg">
<g id="vuesax/linear/medal-star">
<g id="medal-star">
<path id="Vector" d="M39.5833 18.75C39.5833 21.7709 38.6875 24.5417 37.1458 26.8542C34.8958 30.1875 31.3333 32.5417 27.1875 33.1459C26.4792 33.2709 25.75 33.3334 25 33.3334C24.25 33.3334 23.5208 33.2709 22.8125 33.1459C18.6667 32.5417 15.1042 30.1875 12.8542 26.8542C11.3125 24.5417 10.4167 21.7709 10.4167 18.75C10.4167 10.6875 16.9375 4.16669 25 4.16669C33.0625 4.16669 39.5833 10.6875 39.5833 18.75Z" stroke="#1B7DAE" stroke-width="2.5" stroke-linecap="round" stroke-linejoin="round"/>
<path id="Vector_2" d="M44.2708 38.4792L40.8333 39.2916C40.0625 39.4791 39.4583 40.0625 39.2917 40.8334L38.5625 43.8959C38.1667 45.5625 36.0417 46.0625 34.9375 44.75L25 33.3333L15.0625 44.7708C13.9583 46.0833 11.8333 45.5833 11.4375 43.9167L10.7083 40.8541C10.5208 40.0833 9.91667 39.4792 9.16667 39.3125L5.72917 38.5C4.14583 38.125 3.58333 36.1458 4.72917 35L12.8542 26.875C15.1042 30.2083 18.6667 32.5625 22.8125 33.1667C23.5208 33.2917 24.25 33.3542 25 33.3542C25.75 33.3542 26.4792 33.2917 27.1875 33.1667C31.3333 32.5625 34.8958 30.2083 37.1458 26.875L45.2708 35C46.4167 36.125 45.8542 38.1042 44.2708 38.4792Z" stroke="#1B7DAE" stroke-width="2.5" stroke-linecap="round" stroke-linejoin="round"/>
<path id="Vector_3" d="M26.1134 14L27.3426 16.4583C27.5092 16.7917 27.9467 17.125 28.3426 17.1875L30.5717 17.5625C31.9884 17.7916 32.3217 18.8333 31.3009 19.8542L29.5717 21.5833C29.2801 21.875 29.1134 22.4375 29.2176 22.8542L29.7176 25C30.1134 26.6875 29.2176 27.3541 27.7176 26.4583L25.6342 25.2291C25.2592 25 24.6342 25 24.2592 25.2291L22.1759 26.4583C20.6759 27.3333 19.7801 26.6875 20.1759 25L20.6759 22.8542C20.7592 22.4583 20.6134 21.875 20.3217 21.5833L18.5926 19.8542C17.5717 18.8333 17.9051 17.8125 19.3217 17.5625L21.5509 17.1875C21.9259 17.125 22.3634 16.7917 22.5301 16.4583L23.7592 14C24.3634 12.6667 25.4467 12.6667 26.1134 14Z" stroke="#1B7DAE" stroke-width="2.5" stroke-linecap="round" stroke-linejoin="round"/>
</g>
</g>
</svg>
