<svg width="80" height="80" viewBox="0 0 80 80" fill="none" xmlns="http://www.w3.org/2000/svg">
<g id="vuesax/linear/dollar-square">
<g id="dollar-square">
<path id="Vector" d="M28.9062 47.7661C28.9062 52.0661 32.2063 55.5328 36.3063 55.5328H44.6729C48.2396 55.5328 51.1396 52.4995 51.1396 48.7661C51.1396 44.6995 49.3729 43.2661 46.7396 42.3328L33.3062 37.6661C30.6729 36.7328 28.9062 35.2995 28.9062 31.2328C28.9062 27.4995 31.8062 24.4661 35.3729 24.4661H43.7396C47.8396 24.4661 51.1396 27.9328 51.1396 32.2328" stroke="#1B7DAE" stroke-width="2" stroke-linecap="round" stroke-linejoin="round"/>
<path id="Vector_2" d="M40 20V60" stroke="#1B7DAE" stroke-width="2" stroke-linecap="round" stroke-linejoin="round"/>
<path id="Vector_3" d="M50 73.3334H30C13.3333 73.3334 6.66667 66.6667 6.66667 50V30C6.66667 13.3334 13.3333 6.66669 30 6.66669H50C66.6667 6.66669 73.3333 13.3334 73.3333 30V50C73.3333 66.6667 66.6667 73.3334 50 73.3334Z" stroke="#1B7DAE" stroke-width="2" stroke-linecap="round" stroke-linejoin="round"/>
</g>
</g>
</svg>
