<svg width="219" height="52" viewBox="0 0 219 52" fill="none" xmlns="http://www.w3.org/2000/svg">
<g id="Grupo 4">
<g id="Grupo 5">
<path id="Caminho 1" d="M70.9174 27.7178L67.4485 11.6342L67.414 11.4712H62.2383V41.0212H66.0486V20.9314L70.4338 41.0194H74.7291V11.4712H70.9189L70.9174 27.7178Z" fill="#1A1A1A"/>
<path id="Caminho 2" d="M89.1228 34.2313C89.1228 36.0368 88.5718 36.8431 87.3381 36.8431C86.1045 36.8431 85.5536 36.0368 85.5536 34.2313V11.4712H81.3211V33.8999C81.3211 38.7603 83.4336 41.4376 87.2678 41.4376C91.102 41.4376 93.2145 38.7603 93.2145 33.8999V11.4712H89.1228V34.2313Z" fill="#1A1A1A"/>
<path id="Caminho 3" d="M108.003 31.258L105.69 11.659L105.668 11.473H99.808V41.0212H103.551V21.0944L106.069 40.8351L106.092 41.0123H109.64L112.185 21.0855V41.0212H116.206V11.4712H110.346L108.003 31.258Z" fill="#1A1A1A"/>
<path id="Caminho 4" d="M122.933 41.0212H133.843V36.4284H127.166V27.9233H132.473V23.3288H127.166V16.064H133.843V11.4712H122.933V41.0212Z" fill="#1A1A1A"/>
<path id="Caminho 5" d="M151.77 37.2684V32.153C151.77 28.6712 151.042 26.7292 149.419 25.9371C150.976 25.0033 151.734 23.1127 151.734 20.1749V18.3853C151.734 13.6685 149.855 11.4749 145.822 11.4749H139.909V41.0213H144.134V28.5418H145.287C146.985 28.5418 147.533 29.3587 147.533 31.9084V37.2241C147.446 38.4423 147.565 39.6687 147.883 40.8317L147.936 41.0178H152.277L152.17 40.7166C151.832 39.6121 151.694 38.4364 151.762 37.2649M144.134 16.0641H145.708C146.976 16.0641 147.492 16.8685 147.492 18.8424V21.0892C147.492 23.095 146.853 23.9508 145.356 23.9508H144.134V16.0641Z" fill="#1A1A1A"/>
<path id="Caminho 6" d="M161.304 11.4712L157.238 41.0212H161.196L161.9 35.3228H165.985L166.679 41.0212H170.919L166.858 11.4712H161.304ZM165.466 30.9373H162.407L163.921 18.0255L165.466 30.9373Z" fill="#1A1A1A"/>
<path id="Caminho 7" d="M173.968 16.064H178.011V41.0212H182.243V16.064H186.285V11.4712H173.968V16.064Z" fill="#1A1A1A"/>
<path id="Caminho 8" d="M191.325 16.064H195.367V41.0212H199.6V16.064H203.642V11.4712H191.326L191.325 16.064Z" fill="#1A1A1A"/>
<path id="Caminho 9" d="M216.089 11.4712L216.046 11.6129C215.188 14.3753 214.084 15.1319 210.911 15.1319H210.728V18.8104H214.761V41.0212H218.994V11.4712H216.089Z" fill="#1A1A1A"/>
</g>
<g id="Grupo 4_2">
<path id="Caminho 10" d="M46.8311 0L44.9597 8.84179L44.771 9.72774L44.7261 9.94037L44.1512 12.6514L43.0867 17.6836L41.5776 15.9471L41.1763 15.4864L40.7616 15.0133L40.6987 14.9389L32.2802 25.7192L28.6257 30.4005L22.6071 38.1083L12.4549 51.114L11.7677 52H0L3.7429 47.1981L12.4489 36.0493L17.5841 29.4738L23.5982 21.7731L32.2742 10.6615L34.4855 7.83181L34.4242 7.76093L33.6082 6.82714L32.6021 5.67009L32.2802 5.30153L32.0197 5.00385L32.2802 4.91526L36.11 3.62177L38.206 2.91301L38.3647 2.85808L39.4217 2.5037L46.8311 0Z" fill="#F27405"/>
<path id="Caminho 11" d="M22.893 20.5488L16.879 28.2494L12.4534 20.6303V33.9089L3.74738 45.0577V5.67188H14.2455L22.893 20.5488Z" fill="#F27405"/>
<path id="Caminho 12" d="M41.1749 16.47V51.9966H30.6843L23.3228 39.3311L29.3369 31.6304L32.2803 36.6927V27.8615L41.1749 16.47Z" fill="#F27405"/>
</g>
</g>
</svg>
