<svg width="35" height="35" viewBox="0 0 35 35" fill="none" xmlns="http://www.w3.org/2000/svg">
<g id="Social Icons">
<path id="Vector" d="M0 34.9999L2.4602 26.0122C0.942081 23.3814 0.144375 20.3991 0.145833 17.341C0.150208 7.78019 7.9304 0 17.4898 0C22.1287 0.00145833 26.4833 1.80833 29.7587 5.08666C33.0326 8.36498 34.8351 12.7225 34.8337 17.357C34.8293 26.9193 27.0491 34.6995 17.4898 34.6995C14.5877 34.6981 11.7279 33.9703 9.19477 32.5878L0 34.9999ZM9.6206 29.4481C12.0648 30.8991 14.3981 31.7683 17.4839 31.7697C25.4289 31.7697 31.901 25.3035 31.9053 17.3541C31.9083 9.38873 25.4668 2.93124 17.4956 2.92833C9.54477 2.92833 3.07708 9.39456 3.07416 17.3425C3.0727 20.5872 4.02353 23.0168 5.6204 25.5587L4.16353 30.8787L9.6206 29.4481ZM26.2266 21.4797C26.1187 21.2989 25.8299 21.191 25.3954 20.9737C24.9622 20.7564 22.8316 19.7079 22.4335 19.5635C22.0368 19.4191 21.7481 19.3462 21.4579 19.7808C21.1691 20.2139 20.3379 21.191 20.0856 21.4797C19.8333 21.7685 19.5795 21.805 19.1464 21.5877C18.7133 21.3704 17.3162 20.9139 15.661 19.4366C14.3733 18.2875 13.5027 16.8685 13.2504 16.4339C12.9981 16.0008 13.2241 15.766 13.44 15.5502C13.6354 15.3562 13.8731 15.0441 14.0904 14.7904C14.3106 14.5396 14.3821 14.3587 14.5279 14.0685C14.6723 13.7798 14.6008 13.526 14.4914 13.3087C14.3821 13.0929 13.5158 10.9594 13.1556 10.0916C12.8027 9.24727 12.4454 9.36102 12.18 9.3479L11.3487 9.33331C11.06 9.33331 10.5904 9.44123 10.1937 9.87581C9.79706 10.3104 8.67706 11.3575 8.67706 13.491C8.67706 15.6245 10.2302 17.6852 10.446 17.9739C10.6633 18.2627 13.5012 22.6406 17.8485 24.5174C18.8825 24.9637 19.6904 25.2306 20.3189 25.4304C21.3572 25.7599 22.3022 25.7133 23.0489 25.6024C23.8816 25.4785 25.6127 24.5539 25.9743 23.5418C26.336 22.5283 26.336 21.6606 26.2266 21.4797Z" fill="white"/>
</g>
</svg>
